<svg xmlns="http://www.w3.org/2000/svg" viewBox="0 0 222.54 176.71"><title>Recurso 4</title><g id="Capa_2" data-name="Capa 2"><g id="Capa_1-2" data-name="Capa 1"><path d="M135.94,144.62a66,66,0,0,1-17.55-10.69q-2.37,1.48-4.77,2.75Q103.5,142,88.84,142.05a47,47,0,0,1-35.76-15.86A54.34,54.34,0,0,1,43,109.1,58.33,58.33,0,0,1,39.3,88.36v-.49A57.45,57.45,0,0,1,43,67.24a53.37,53.37,0,0,1,10.25-17A47.28,47.28,0,0,1,88.84,34.66a51.84,51.84,0,0,1,23.31,5.13c1,.48,1.95,1,2.92,1.52l.37-.37a63.56,63.56,0,0,1,20.77-13.73,64.71,64.71,0,0,1,16.51-4.39,99.36,99.36,0,0,0-9-7.2,77.94,77.94,0,0,0-14.89-8.3A92.2,92.2,0,0,0,110.93,2,113.11,113.11,0,0,0,89.09,0,91.35,91.35,0,0,0,53,7,84.85,84.85,0,0,0,24.89,26,88.72,88.72,0,0,0,0,88.36v.49a89.87,89.87,0,0,0,6.59,34.41,84.17,84.17,0,0,0,46.13,46.62,88.53,88.53,0,0,0,34.9,6.83,111.3,111.3,0,0,0,22.46-2.07A79.79,79.79,0,0,0,144,158.89a119,119,0,0,0,10.72-9.61A64.53,64.53,0,0,1,135.94,144.62Z"/><path d="M218,108a57.54,57.54,0,0,1-31.44,31,65.15,65.15,0,0,1-48,0,59.55,59.55,0,0,1-18.89-12.38,55.41,55.41,0,0,1-12.39-18.33,57.71,57.71,0,0,1-4.42-22.59v-.32a57,57,0,0,1,4.5-22.6,57.63,57.63,0,0,1,31.44-31,65.17,65.17,0,0,1,48,0,59.77,59.77,0,0,1,18.89,12.38,55.54,55.54,0,0,1,12.38,18.33,57.71,57.71,0,0,1,4.42,22.59v.33A56.91,56.91,0,0,1,218,108ZM196.65,85.43a37.52,37.52,0,0,0-2.49-13.67,33.63,33.63,0,0,0-17.93-18.89,32.9,32.9,0,0,0-13.66-2.82,33.69,33.69,0,0,0-13.75,2.73,31.52,31.52,0,0,0-10.61,7.56,35.58,35.58,0,0,0-6.92,11.18A36.85,36.85,0,0,0,128.8,85.1v.33a37.47,37.47,0,0,0,2.49,13.66,33.93,33.93,0,0,0,7.08,11.26A34.31,34.31,0,0,0,149.14,118a33,33,0,0,0,13.75,2.81,33.92,33.92,0,0,0,13.67-2.73,31.45,31.45,0,0,0,10.69-7.56,35.73,35.73,0,0,0,6.91-11.18,36.85,36.85,0,0,0,2.49-13.58Z"/></g></g></svg>