<svg xmlns="http://www.w3.org/2000/svg" viewBox="0 0 704.12 115.16"><title>Recurso 2</title><g id="Capa_2" data-name="Capa 2"><g id="Capa_1-2" data-name="Capa 1"><path d="M88.59,94.25a43,43,0,0,1-11.43-7c-1,.65-2.07,1.25-3.11,1.8q-6.61,3.49-16.15,3.5A30.67,30.67,0,0,1,34.6,82.24,35.28,35.28,0,0,1,28,71.1a38.2,38.2,0,0,1-2.38-13.52v-.32A37.56,37.56,0,0,1,28,43.82a34.94,34.94,0,0,1,6.68-11A30.82,30.82,0,0,1,57.9,22.59a33.79,33.79,0,0,1,15.19,3.34c.64.31,1.27.64,1.9,1l.24-.24a41.43,41.43,0,0,1,13.54-8.95,42.14,42.14,0,0,1,10.76-2.86,68.08,68.08,0,0,0-5.84-4.69A50.79,50.79,0,0,0,84,4.77a59.46,59.46,0,0,0-11.69-3.5A74.25,74.25,0,0,0,58.06,0,59.55,59.55,0,0,0,34.52,4.53a55.4,55.4,0,0,0-18.3,12.41A57.9,57.9,0,0,0,0,57.58v.32A58.56,58.56,0,0,0,4.3,80.33,55.27,55.27,0,0,0,16.22,98.54a56,56,0,0,0,18.14,12.17,57.58,57.58,0,0,0,22.74,4.45,72.53,72.53,0,0,0,14.64-1.35,52,52,0,0,0,12-4,53,53,0,0,0,10.1-6.28,77.76,77.76,0,0,0,7-6.26A42.2,42.2,0,0,1,88.59,94.25Z"/><path d="M142.09,70.39a37.57,37.57,0,0,1-20.48,20.23,40.43,40.43,0,0,1-15.67,3,40,40,0,0,1-15.61-3A38.8,38.8,0,0,1,78,82.55,36,36,0,0,1,70,70.6a37.62,37.62,0,0,1-2.88-14.72v-.21A37.12,37.12,0,0,1,70,41,37.54,37.54,0,0,1,90.49,20.72a42.53,42.53,0,0,1,31.28,0,39.14,39.14,0,0,1,12.31,8.07,36,36,0,0,1,8.07,12A37.66,37.66,0,0,1,145,55.46v.21A37,37,0,0,1,142.09,70.39ZM128.16,55.67a24.34,24.34,0,0,0-1.63-8.91,22,22,0,0,0-11.68-12.31,21.52,21.52,0,0,0-8.91-1.83,21.92,21.92,0,0,0-9,1.78,20.55,20.55,0,0,0-6.91,4.92,23.27,23.27,0,0,0-4.51,7.29,24.07,24.07,0,0,0-1.62,8.85v.21a24.54,24.54,0,0,0,1.62,8.91A22.14,22.14,0,0,0,97.19,76.89a21.46,21.46,0,0,0,9,1.83,22,22,0,0,0,8.91-1.78A20.36,20.36,0,0,0,122,72a23.2,23.2,0,0,0,4.5-7.28,23.92,23.92,0,0,0,1.63-8.86Z"/><path d="M167.9,99.49a5.5,5.5,0,0,1-5.58-5.58V21.26a5.37,5.37,0,0,1,1.61-4,5.52,5.52,0,0,1,4-1.55h48.5a5.49,5.49,0,0,1,4,1.45,5,5,0,0,1,1.5,3.81,4.72,4.72,0,0,1-1.5,3.64,5.64,5.64,0,0,1-4,1.4H173.48V52.06h30.8a5.5,5.5,0,0,1,4,1.44,5.33,5.33,0,0,1,0,7.41,5.51,5.51,0,0,1-4,1.45h-30.8V89.18H216.4a5.64,5.64,0,0,1,4,1.4,4.76,4.76,0,0,1,1.5,3.65,5.07,5.07,0,0,1-1.5,3.81,5.53,5.53,0,0,1-4,1.45Z"/><path d="M254.39,99.91A29.29,29.29,0,0,1,239.32,96a28.89,28.89,0,0,1-10.63-10.68,29.84,29.84,0,0,1-3.92-15.24,31.58,31.58,0,0,1,3.6-15.18,27.77,27.77,0,0,1,9.82-10.62,25.76,25.76,0,0,1,14.06-3.92A26.45,26.45,0,0,1,273,50.12v-29a5.26,5.26,0,0,1,1.55-4,5.45,5.45,0,0,1,9.39,4V70.08A29.84,29.84,0,0,1,280,85.32a28.88,28.88,0,0,1-25.6,14.59Zm0-9.65a18.38,18.38,0,0,0,9.77-2.63,18.61,18.61,0,0,0,6.76-7.25,21.51,21.51,0,0,0,2.47-10.3,21.17,21.17,0,0,0-2.47-10.3,18.94,18.94,0,0,0-6.76-7.14,19.41,19.41,0,0,0-19.48,0,19.15,19.15,0,0,0-6.87,7.14,20.76,20.76,0,0,0-2.52,10.3,21.09,21.09,0,0,0,2.52,10.3,18.81,18.81,0,0,0,6.87,7.25A18.42,18.42,0,0,0,254.39,90.26Z"/><path d="M319.31,100a27.4,27.4,0,0,1-13.25-3.16,22.82,22.82,0,0,1-9.23-9.29q-3.37-6.1-3.38-15V46.15a5.48,5.48,0,1,1,10.95,0v26.4a19.72,19.72,0,0,0,2.25,9.93,14,14,0,0,0,6.12,5.79,19.62,19.62,0,0,0,8.69,1.88,18,18,0,0,0,8.21-1.82,15.28,15.28,0,0,0,5.74-4.94,12,12,0,0,0,2.14-7h6.76a22.61,22.61,0,0,1-3.27,12,23.55,23.55,0,0,1-8.9,8.48A26.06,26.06,0,0,1,319.31,100ZM343,99.49A5.33,5.33,0,0,1,337.55,94V46.15a5.28,5.28,0,0,1,1.56-4,5.45,5.45,0,0,1,9.39,4V94a5.42,5.42,0,0,1-1.5,3.92A5.26,5.26,0,0,1,343,99.49Z"/><path d="M397.86,100.56a40.36,40.36,0,0,1-29.45-12.4,42.14,42.14,0,0,1-8.8-13.68,44.61,44.61,0,0,1-3.17-17,44,44,0,0,1,3.17-16.8,42.51,42.51,0,0,1,8.8-13.62,41.2,41.2,0,0,1,13.14-9.18,39.78,39.78,0,0,1,16.31-3.33,42,42,0,0,1,14.22,2.15,40.8,40.8,0,0,1,12,7.08,6.12,6.12,0,0,1,1.35,1.34,4.16,4.16,0,0,1,.64,1.4,7.36,7.36,0,0,1,.16,1.66,4.39,4.39,0,0,1-1.45,3.38,5.59,5.59,0,0,1-7.46.16,31.55,31.55,0,0,0-8.2-5.25,28.74,28.74,0,0,0-11.22-1.83A28,28,0,0,0,386,27.27a31.31,31.31,0,0,0-9.82,7.08,32.67,32.67,0,0,0-6.6,10.46,35.73,35.73,0,0,0,0,25.54,32.67,32.67,0,0,0,6.6,10.46,30.69,30.69,0,0,0,9.82,7,29.51,29.51,0,0,0,22.27.65,40,40,0,0,0,9.39-5.21,5.6,5.6,0,0,1,3.81-1.23,4.84,4.84,0,0,1,3.16,1.5,5.13,5.13,0,0,1,1.29,3.7,5.22,5.22,0,0,1-.43,2.09,5.85,5.85,0,0,1-1.29,1.88,42.94,42.94,0,0,1-12.39,7A41,41,0,0,1,397.86,100.56Z"/><path d="M456.35,99.91A30.34,30.34,0,0,1,441,96.11a27.6,27.6,0,0,1-10.46-10.52,30.64,30.64,0,0,1-3.81-15.4,30.9,30.9,0,0,1,3.81-15.51A27.57,27.57,0,0,1,441,44.17a32.58,32.58,0,0,1,30.58,0,27.6,27.6,0,0,1,10.47,10.51,31,31,0,0,1,3.81,15.51,31,31,0,0,1-3.76,15.4,27.26,27.26,0,0,1-10.41,10.52A30.33,30.33,0,0,1,456.35,99.91Zm0-9.65a18.8,18.8,0,0,0,9.87-2.58,18,18,0,0,0,6.7-7.08,21.71,21.71,0,0,0,2.42-10.41,22,22,0,0,0-2.42-10.46,17.88,17.88,0,0,0-6.7-7.14,20.26,20.26,0,0,0-19.75,0,18.37,18.37,0,0,0-6.76,7.14,21.69,21.69,0,0,0-2.46,10.46,21.38,21.38,0,0,0,2.46,10.41,18.49,18.49,0,0,0,6.76,7.08A18.81,18.81,0,0,0,456.35,90.26Z"/><path d="M518.26,100A27.4,27.4,0,0,1,505,96.86a22.82,22.82,0,0,1-9.23-9.29q-3.37-6.1-3.38-15V46.15a5.48,5.48,0,1,1,11,0v26.4a19.72,19.72,0,0,0,2.25,9.93,14,14,0,0,0,6.12,5.79,19.62,19.62,0,0,0,8.69,1.88,18,18,0,0,0,8.21-1.82,15.28,15.28,0,0,0,5.74-4.94,12,12,0,0,0,2.14-7h6.76a22.61,22.61,0,0,1-3.27,12,23.51,23.51,0,0,1-8.91,8.48A26,26,0,0,1,518.26,100ZM542,99.49A5.33,5.33,0,0,1,536.5,94V46.15a5.28,5.28,0,0,1,1.56-4,5.45,5.45,0,0,1,9.39,4V94a5.42,5.42,0,0,1-1.5,3.92A5.28,5.28,0,0,1,542,99.49Z"/><path d="M563.55,99.49a5.5,5.5,0,0,1-4-1.35,5.32,5.32,0,0,1-1.39-4v-48a4.85,4.85,0,0,1,5.37-5.36,5.49,5.49,0,0,1,4,1.34,5.48,5.48,0,0,1,1.34,4v48a5.51,5.51,0,0,1-1.34,4A5.35,5.35,0,0,1,563.55,99.49Zm-.11-36.7a21.41,21.41,0,0,1,3.16-11.54,23.21,23.21,0,0,1,8.53-8.1,23.82,23.82,0,0,1,11.81-3q6.43,0,9.6,2.1t2.42,5a4.11,4.11,0,0,1-1.24,2.3,4.19,4.19,0,0,1-2.09,1,6.33,6.33,0,0,1-2.58-.1,30,30,0,0,0-12.34-.22,16.71,16.71,0,0,0-8.63,4.4,11.13,11.13,0,0,0-3.17,8.16Z"/><path d="M623.1,99.91a40.58,40.58,0,0,1-13.9-2.3,26.68,26.68,0,0,1-9.92-5.85,4.65,4.65,0,0,1-1.34-3.92A5.12,5.12,0,0,1,600,84.25a5.57,5.57,0,0,1,4.24-1.45,5.78,5.78,0,0,1,3.59,1.88,17.08,17.08,0,0,0,5.85,3.81,22,22,0,0,0,9,1.77c4.15,0,7.31-.68,9.5-2A6.31,6.31,0,0,0,635.55,83q.11-3.22-3.06-5.58T621,73.52q-10.83-2.14-15.72-6.44a13.49,13.49,0,0,1-4.88-10.52,13.08,13.08,0,0,1,3.22-9.07,19.61,19.61,0,0,1,8.26-5.36,31.57,31.57,0,0,1,10.52-1.77,32.75,32.75,0,0,1,12.55,2.25,21.42,21.42,0,0,1,8.7,6.23A4.94,4.94,0,0,1,645,52.43a4.17,4.17,0,0,1-1.82,3.17,5.33,5.33,0,0,1-4.08.75,7.7,7.7,0,0,1-4-1.93,14.67,14.67,0,0,0-5.8-3.55,24.4,24.4,0,0,0-7.19-1,18,18,0,0,0-8,1.61c-2.18,1.07-3.27,2.65-3.27,4.72a6.23,6.23,0,0,0,1,3.49,8.55,8.55,0,0,0,4,2.79,51.35,51.35,0,0,0,8.8,2.41A48,48,0,0,1,637.43,69a17,17,0,0,1,6.7,5.74,14,14,0,0,1,2,7.57,15.76,15.76,0,0,1-2.63,8.9,18,18,0,0,1-7.72,6.33A30.16,30.16,0,0,1,623.1,99.91Z"/><path d="M679,99.91a32.29,32.29,0,0,1-15.83-3.8,27.9,27.9,0,0,1-10.84-10.52,30,30,0,0,1-3.91-15.4,31.6,31.6,0,0,1,3.7-15.51,27,27,0,0,1,10.25-10.51,29.29,29.29,0,0,1,15-3.81,26.87,26.87,0,0,1,14.38,3.7A24.2,24.2,0,0,1,701,54.25a33.77,33.77,0,0,1,3.17,15,4.49,4.49,0,0,1-1.4,3.38A4.88,4.88,0,0,1,699.18,74H655.94V65.36h42.92l-4.4,3a23.11,23.11,0,0,0-2.14-9.61,15.67,15.67,0,0,0-14.92-9.17,19.49,19.49,0,0,0-10.46,2.68,17.27,17.27,0,0,0-6.6,7.35,23.91,23.91,0,0,0-2.26,10.57,20.53,20.53,0,0,0,2.69,10.52,19.48,19.48,0,0,0,7.4,7.29A21.55,21.55,0,0,0,679,90.69a20.13,20.13,0,0,0,6.81-1.24,21.29,21.29,0,0,0,5.64-2.84,6.07,6.07,0,0,1,3.48-1.24,4.71,4.71,0,0,1,3.28,1.13A5.09,5.09,0,0,1,700.15,90a3.81,3.81,0,0,1-1.72,3.33,29.47,29.47,0,0,1-9.07,4.72A32.29,32.29,0,0,1,679,99.91Z"/></g></g></svg>